PathFileType	4	(X/Y/Z)	C:/Users/beibeiliu/ov580/test_trc/User3\sequence.7_training_dense_right.trc
DataRate	CameraRate	NumFrames	NumMarkers	Units	OrigDataRate	OrigDataStartFrame	OrigNumFrames
120	120	16	19	mm	120	126	200
Frame#	Time	ThumbCMC			ThumbMCP			ThumbIP			ThumbTip			IndexMCP			IndexPIP			IndexTip			MiddleMCP			MiddlePIP			MiddleTip			RingMCP			RingPIP			RingTip			PinkyMCP			PinkyPIP			PinkyTip			BackHand1			BackHand2			BackHand3	
		X0	Y0	Z0	X1	Y1	Z1	X2	Y2	Z2	X3	Y3	Z3	X4	Y4	Z4	X5	Y5	Z5	X6	Y6	Z6	X7	Y7	Z7	X8	Y8	Z8	X9	Y9	Z9	X10	Y10	Z10	X11	Y11	Z11	X12	Y12	Z12	X13	Y13	Z13	X14	Y14	Z14	X15	Y15	Z15	X16	Y16	Z16	X17	Y17	Z17	X18	Y18	Z18	
125	1.04167	61.1049	-0.246477	-3.48339	36.3192	-9.61453	-23.426	18.5271	-16.2765	-41.8417	2.69617	-21.7374	-60.4185	61.524	27.7272	-74.2107	46.8566	32.1361	-96.7258	36.4456	32.8992	-123.641	90.8891	29.813	-84.5596	80.7728	37.498	-113.258	77.2015	36.9764	-146.272	108.701	20.3967	-81.6738	112.314	25.9177	-108.892	107.409	26.9223	-131.556	127.979	0.710776	-69.6033	135.648	3.50064	-89.231	141.102	2.0729	-112.98	120.257	16.8832	-34.3615	124.536	11.9771	-4.78017	87.8482	22.4254	-14.8031	
126	1.05	63.7486	-0.150126	-5.13648	41.2318	-9.08549	-22.984	20.2425	-14.998	-43.5823	10.4675	-22.8052	-61.2602	62.1439	29.9772	-72.9165	50.7155	34.1203	-101.565	42.103	31.3124	-125.137	92.9224	33.7602	-85.8448	86.1627	38.0943	-113.553	80.4436	33.8289	-144.456	114.324	23.4085	-82.1071	112.211	28.2857	-106.091	110.672	25.1285	-135.449	132.707	3.06061	-69.0794	140.543	3.97764	-91.7027	140.994	3.6811	-115.645	118.707	19.6696	-33.418	128.773	14.6253	-3.81949	90.5185	26.2162	-15.0119	
127	1.05833	63.838	0.945173	-3.23745	44.7862	-8.2068	-25.9999	25.3065	-15.6922	-43.8921	16.0378	-22.4989	-66.4636	67.5737	32.747	-73.1184	48.9817	36.8481	-98.9471	39.1549	26.3564	-123.937	91.1712	36.1294	-80.4712	87.1062	38.2384	-113.263	76.8515	25.4327	-144.034	110.831	25.5597	-77.7689	112.031	28.6362	-109.002	107.608	18.0022	-132.602	134.811	7.4493	-70.8967	136.89	5.54579	-95.3551	136.803	-1.46196	-118.006	121.656	18.7159	-32.2151	125.835	13.3337	1.76035	94.0727	22.9413	-9.75237	
128	1.06667	62.3161	-0.897199	0.606355	45.9863	-10.7267	-21.7832	29.2473	-17.0326	-46.8779	20.5898	-24.5519	-72.5548	66.1518	33.599	-70.2867	55.2235	35.4898	-96.2545	43.7255	20.3069	-119.335	92.3441	33.3508	-76.9073	82.8075	36.2237	-111.5	73.0934	13.3786	-139.44	110.28	25.8649	-77.6034	108.384	25.2334	-107.717	99.103	6.99681	-130.526	134.761	4.86288	-70.3212	133.497	4.22969	-92.1289	126.561	-8.36379	-112.71	121.805	17.4389	-31.0234	129.622	13.8464	0.918277	94.2939	21.861	-7.07313	
129	1.075	65.8357	-2.48826	-3.41656	45.9573	-10.4737	-26.1302	28.472	-17.3075	-49.1134	24.7506	-26.1463	-73.1402	69.6749	33.1801	-73.9191	53.6079	33.5348	-97.1363	44.9586	14.6345	-119.129	92.0981	34.8936	-80.6817	86.0372	31.916	-112.761	71.1738	5.83438	-136.434	111.775	22.8032	-76.2837	110.339	22.5113	-104.565	99.6604	-0.972447	-128.111	130.635	2.49587	-66.9169	134.131	-3.9374	-96.2628	125.483	-20.826	-113.171	122.091	16.6684	-28.1709	126.941	10.386	3.78181	93.2846	23.0263	-7.53701	
130	1.08333	66.7254	-0.569925	-2.70259	43.2241	-8.28114	-29.388	31.7747	-14.2271	-54.8324	30.5737	-23.4404	-77.2102	70.8603	35.1054	-71.8881	54.3552	35.3653	-97.6954	49.0195	16.5111	-120.685	97.8524	35.3868	-83.3844	86.8404	32.1091	-113.948	75.7578	8.1181	-134.57	115.475	23.8501	-78.3259	110.514	21.7248	-108.063	99.3472	-1.48386	-128.306	131.105	4.46884	-71.3154	135.291	-2.50194	-93.9457	123.457	-20.707	-114.565	121.41	19.6853	-28.0766	131.432	9.92369	1.29463	95.3304	23.0838	-9.61661	
131	1.09167	66.6082	2.99389	-7.88648	46.3354	-5.91558	-28.691	30.7033	-10.4806	-58.5947	31.2078	-17.4278	-80.5858	69.7856	39.9184	-69.4922	57.8989	42.489	-98.6825	46.8577	22.5969	-119.653	99.1111	38.5941	-78.8055	89.2443	37.666	-114.725	81.216	11.1906	-137.241	117.526	26.8016	-76.862	113.37	26.5417	-107.956	103.124	1.4585	-127.942	134.568	7.71118	-71.1444	133.698	-0.661521	-97.71	126.272	-17.5718	-114.549	122.08	20.929	-26.2307	129.749	15.7214	-1.56496	95.896	27.4681	-11.7818	
132	1.1	63.2044	3.1879	-7.47886	46.2646	-3.68179	-34.6883	34.0738	-6.31732	-65.7009	39.2828	-13.101	-87.8352	78.3015	43.1307	-73.6429	66.3549	46.4162	-103.202	51.8473	24.7083	-126.724	99.6159	45.0823	-79.5671	95.6012	43.4273	-116.17	87.6335	19.2222	-137.866	120.453	31.4088	-79.6231	118.01	31.1856	-107.724	106.096	7.38757	-129.121	137.97	9.50087	-70.1682	136.343	2.41538	-99.6925	126.823	-13.5134	-113.832	126.646	24.9751	-26.6292	131.731	13.7538	0.915098	95.6358	29.3798	-8.13356	
133	1.10833	64.658	-1.76408	-14.3262	54.0493	-9.65232	-46.5894	44.5771	-15.3024	-70.7784	46.8492	-22.1832	-95.4435	78.0441	39.0204	-81.2325	69.1727	37.4838	-111.217	65.677	15.1397	-134.411	109.112	38.0262	-87.7615	101.173	38.3071	-117.252	97.4881	10.4931	-142.892	127.384	24.7574	-82.2769	128.576	21.6797	-111.921	121.247	-2.09535	-131.548	145.797	3.5679	-75.6983	145.847	-7.42969	-101.785	135.282	-20.8915	-114.53	127.289	19.806	-31.7672	127.632	14.6322	-4.47328	94.8477	24.7333	-15.7191	
134	1.11667	70.0214	-15.3731	-18.9001	57.2865	-29.8321	-45.4313	43.0001	-40.045	-74.3605	48.5625	-49.9463	-97.9827	83.2314	13.0087	-90.3465	70.5895	7.65335	-119.063	67.5712	-20.2107	-138.317	107.589	14.8452	-95.6187	106.939	6.09877	-127.882	103.624	-29.4597	-146.354	127.072	3.68726	-88.5963	130.282	-5.20111	-116.239	120.806	-36.0574	-132.477	145.757	-15.2094	-74.2383	146.833	-30.3884	-100.695	139.961	-50.2414	-111.462	126.224	8.17758	-34.5368	128.145	3.03902	-4.79317	98.496	12.1408	-21.5128	
135	1.125	65.4852	-27.0209	-18.677	50.0231	-47.4816	-38.649	38.7915	-63.8419	-63.3606	44.2096	-78.5582	-82.0809	76.0502	-19.4093	-91.3597	70.8991	-33.6475	-120.18	66.2844	-62.6744	-130.374	106.4	-21.5882	-101.227	103.129	-38.2398	-127.579	97.4727	-72.2715	-135.358	124.116	-29.675	-93.0348	125.003	-49.2485	-115.762	119.593	-77.3735	-117.95	141.964	-44.3518	-72.767	144.843	-67.1356	-92.1493	135.005	-90.6245	-94.46	125.118	-12.3826	-42.8069	126.611	-4.30451	-10.2703	94.5924	-3.91869	-31.1668	
136	1.13333	62.6165	-27.1873	-10.2697	45.8957	-49.1021	-28.0196	29.6716	-66.5475	-44.7892	26.4138	-86.1148	-60.688	72.7774	-43.655	-85.6542	54.0611	-59.9435	-108.53	45.5925	-93.2442	-107.269	95.6613	-53.166	-93.9638	84.7614	-72.6035	-114.904	73.6295	-108.28	-109.653	114.638	-62.7055	-82.0325	108.583	-86.4338	-99.5873	93.1419	-115.666	-90.8742	128.594	-74.1512	-64.267	123.079	-101.694	-73.8136	104.257	-119.642	-66.7911	122.286	-32.1539	-43.0957	129.615	-20.8064	-12.1428	95.7917	-14.1478	-32.5296	
137	1.14167	65.0943	-13.0469	-9.42806	38.1744	-28.0832	-22.1562	13.3189	-39.961	-36.1317	6.36682	-61.7611	-41.9104	59.0527	-48.1969	-82.1709	35.3692	-61.9617	-96.187	13.8719	-82.5378	-86.4888	77.312	-67.3337	-84.4652	53.2462	-89.0048	-99.902	31.1687	-109.284	-81.5205	91.1463	-83.2744	-73.5158	70.2104	-106.456	-81.4193	47.5927	-118.745	-61.3153	99.8503	-96.3978	-52.4095	84.2644	-117.349	-52.8497	62.0349	-123.599	-33.0072	118.594	-50.4512	-38.0089	127.154	-32.0736	-16.7934	96.5095	-18.7537	-33.9285	
138	1.15	76.388	1.18591	-12.8224	45.6535	1.97194	-21.7562	16.6853	-1.21544	-33.5267	-4.15643	-18.0757	-38.6818	51.4044	-38.0587	-78.362	20.7649	-40.3588	-91.0969	-4.07824	-48.2516	-77.5619	57.7399	-62.7566	-79.0131	25.5615	-73.0529	-87.5313	0.772621	-80.2201	-67.7823	64.1359	-79.988	-60.3162	35.0921	-96.4204	-65.7127	9.25133	-90.76	-47.0298	66.4486	-95.0523	-39.2164	41.836	-104.745	-36.5006	19.3671	-96.4969	-18.3051	103.4	-58.1059	-36.2877	122.574	-49.5149	-13.5719	102.384	-23.0173	-30.805	
139	1.15833	89.5897	3.62256	-13.5185	61.8603	16.8388	-26.8026	36.2578	29.6526	-38.9317	13.5181	21.8307	-42.2597	51.8907	-19.2849	-78.7505	22.678	-11.5449	-92.5643	-1.62741	-4.61048	-82.8802	45.0809	-47.3654	-75.3834	11.2529	-44.5241	-85.6432	-15.9939	-35.6332	-67.3761	41.2997	-61.8299	-55.9803	11.5364	-65.8421	-62.2725	-14.4321	-48.8827	-44.7236	34.9348	-77.5669	-29.5831	11.2659	-74.3448	-30.0632	-7.76312	-53.7289	-16.3789	85.5352	-59.1763	-29.8342	107.846	-58.1537	-7.16711	101.675	-29.9959	-29.3222	
140	1.16667	94.9846	0.629701	-15.8561	79.8733	26.5524	-29.745	60.9857	42.0621	-42.6846	35.9296	45.9656	-52.5814	56.5731	-12.3394	-77.141	31.1815	2.82933	-96.7349	12.2355	24.9786	-92.4692	39.3523	-34.3233	-72.7035	10.2457	-19.923	-90.2164	-15.8527	0.501227	-77.286	24.5005	-47.811	-55.0745	-0.485999	-35.2384	-66.853	-21.7302	-11.1945	-53.0679	17.9954	-52.5432	-27.3117	-5.82667	-41.8341	-31.8314	-17.8187	-11.6086	-23.9319	66.0027	-58.5181	-19.8585	84.52	-60.4641	-0.991023	95.6911	-33.7375	-27.0866	
